<svg width="539" height="416" viewBox="0 0 539 416" fill="none" xmlns="http://www.w3.org/2000/svg">
<g clip-path="url(#clip0_8221_1667)">
<path d="M529.862 360.906C527.597 342.693 516.308 324.749 498.935 318.822C505.786 337.568 505.785 358.132 498.931 376.876C496.261 384.096 492.54 391.848 495.051 399.124C496.614 403.651 500.436 407.115 504.708 409.281C508.98 411.447 513.722 412.479 518.404 413.49L519.326 414.252C526.759 397.472 532.128 379.118 529.862 360.906Z" fill="#F0F0F0"/>
<path d="M498.762 319.167C508.88 330.5 515.168 344.732 516.733 359.842C517.128 363.089 517.009 366.378 516.379 369.587C515.665 372.694 514.132 375.553 511.939 377.867C509.937 380.065 507.635 382.083 506.203 384.729C505.49 386.095 505.074 387.596 504.982 389.134C504.89 390.671 505.124 392.211 505.669 393.652C506.933 397.278 509.425 400.233 511.963 403.039C514.78 406.153 517.756 409.344 518.954 413.473C519.099 413.974 519.867 413.719 519.722 413.22C517.638 406.035 510.663 401.954 507.336 395.484C505.784 392.464 505.132 388.959 506.587 385.771C507.86 382.984 510.232 380.902 512.278 378.693C514.45 376.468 516.045 373.744 516.921 370.76C517.712 367.592 517.958 364.314 517.649 361.064C517.069 353.737 515.341 346.546 512.527 339.756C509.358 331.988 504.884 324.819 499.298 318.56C498.952 318.173 498.419 318.782 498.762 319.167Z" fill="white"/>
<path d="M516.516 354.947C519.016 354.34 521.218 352.865 522.731 350.784C524.243 348.704 524.966 346.153 524.771 343.589C524.73 343.07 523.922 343.109 523.963 343.629C524.149 346.017 523.475 348.392 522.063 350.327C520.651 352.262 518.593 353.628 516.262 354.179C515.756 354.3 516.012 355.067 516.516 354.947Z" fill="white"/>
<path d="M513.1 376.886C508.585 374.19 505.252 369.892 503.765 364.849C503.619 364.349 502.85 364.603 502.997 365.103C504.554 370.348 508.032 374.814 512.737 377.608C513.185 377.874 513.547 377.15 513.1 376.886Z" fill="white"/>
<path d="M508.608 332.754C507.689 333.19 506.677 333.392 505.662 333.34C504.646 333.289 503.659 332.986 502.79 332.459C502.345 332.187 501.984 332.911 502.426 333.181C503.389 333.759 504.479 334.092 505.601 334.152C506.723 334.211 507.842 333.995 508.861 333.522C508.961 333.486 509.043 333.413 509.091 333.318C509.139 333.223 509.149 333.113 509.119 333.011C509.085 332.91 509.012 332.826 508.916 332.778C508.82 332.73 508.71 332.721 508.608 332.754Z" fill="white"/>
<path d="M445.98 351.351C446.253 351.529 446.527 351.707 446.8 351.891C450.459 354.296 453.916 356.995 457.137 359.96C457.39 360.185 457.643 360.417 457.889 360.649C465.574 367.876 471.851 376.466 476.4 385.983C478.206 389.772 479.722 393.693 480.934 397.711C482.607 403.261 483.979 409.412 487.291 413.952C487.631 414.429 488 414.885 488.397 415.317H518.325C518.393 415.283 518.461 415.256 518.529 415.222L519.724 415.276C519.676 415.065 519.622 414.846 519.574 414.635C519.546 414.512 519.512 414.389 519.485 414.266C519.465 414.184 519.444 414.102 519.43 414.027C519.424 414 519.417 413.972 519.41 413.952C519.396 413.877 519.376 413.809 519.362 413.74C519.062 412.518 518.752 411.296 518.434 410.074C518.434 410.068 518.434 410.068 518.427 410.061C515.975 400.756 512.725 391.574 508.185 383.177C508.048 382.925 507.912 382.665 507.761 382.413C505.694 378.639 503.321 375.041 500.667 371.654C499.208 369.804 497.656 368.029 496.017 366.336C491.774 361.97 486.871 358.297 481.487 355.454C470.753 349.788 458.326 347.617 446.854 351.078C446.561 351.167 446.274 351.256 445.98 351.351Z" fill="#F0F0F0"/>
<path d="M446.048 351.731C460.951 354.691 474.542 362.269 484.891 373.391C487.162 375.746 489.047 378.444 490.477 381.385C491.778 384.296 492.275 387.501 491.917 390.669C491.643 393.629 491.02 396.625 491.47 399.601C491.724 401.12 492.295 402.569 493.148 403.852C494 405.136 495.115 406.224 496.417 407.047C499.61 409.18 503.38 410.04 507.095 410.752C511.22 411.544 515.518 412.3 518.961 414.876C519.378 415.188 519.838 414.523 519.421 414.211C513.431 409.729 505.404 410.67 498.851 407.505C495.793 406.029 493.162 403.622 492.405 400.201C491.742 397.21 492.382 394.12 492.686 391.125C493.08 388.04 492.713 384.905 491.616 381.995C490.34 378.99 488.562 376.224 486.358 373.816C481.483 368.314 475.772 363.613 469.436 359.885C462.229 355.59 454.34 352.56 446.11 350.925C445.6 350.824 445.542 351.631 446.048 351.731Z" fill="white"/>
<path d="M481.77 369.614C483.4 367.625 484.271 365.12 484.225 362.549C484.18 359.977 483.221 357.505 481.521 355.575C481.176 355.186 480.554 355.704 480.9 356.094C482.487 357.888 483.379 360.191 483.417 362.586C483.454 364.981 482.634 367.31 481.105 369.153C480.773 369.554 481.44 370.013 481.77 369.614Z" fill="white"/>
<path d="M492.254 389.186C487.026 389.752 481.776 388.327 477.552 385.195C477.134 384.884 476.674 385.549 477.092 385.86C481.493 389.111 486.959 390.583 492.399 389.982C492.917 389.924 492.77 389.129 492.254 389.186Z" fill="white"/>
<path d="M462.091 356.654C461.62 357.555 460.933 358.325 460.092 358.895C459.25 359.466 458.279 359.818 457.268 359.92C456.749 359.971 456.897 360.767 457.412 360.716C458.53 360.598 459.601 360.207 460.532 359.58C461.464 358.952 462.227 358.105 462.756 357.115C462.814 357.025 462.835 356.917 462.816 356.813C462.797 356.708 462.739 356.615 462.654 356.552C462.565 356.491 462.457 356.468 462.351 356.487C462.246 356.506 462.152 356.566 462.091 356.654Z" fill="white"/>
<path d="M299.553 22.2559C298.831 23.1555 298.316 24.2023 298.043 25.3226C297.77 26.4429 297.746 27.6094 297.972 28.74C298.199 29.8706 298.671 30.9377 299.355 31.8662C300.038 32.7948 300.918 33.5621 301.93 34.1142L297.317 61.761L310.633 55.8527L312.972 30.5047C313.787 28.7426 313.927 26.7428 313.366 24.8843C312.805 23.0258 311.581 21.4377 309.927 20.421C308.273 19.4042 306.303 19.0294 304.391 19.3675C302.479 19.7057 300.757 20.7334 299.553 22.2559Z" fill="#9E616A"/>
<path d="M419.347 404.741L408.459 404.74L403.279 362.752L419.349 362.753L419.347 404.741Z" fill="#9E616A"/>
<path d="M422.124 415.293L387.016 415.292V414.848C387.016 411.224 388.456 407.749 391.019 405.187C393.581 402.625 397.057 401.186 400.681 401.186H400.682L422.125 401.187L422.124 415.293Z" fill="#2F2E41"/>
<path d="M346.286 404.741L335.398 404.74L330.218 362.752L346.288 362.753L346.286 404.741Z" fill="#9E616A"/>
<path d="M349.063 415.293L313.955 415.292V414.848C313.955 411.224 315.395 407.749 317.958 405.187C320.52 402.625 323.996 401.186 327.62 401.186H327.621L349.064 401.187L349.063 415.293Z" fill="#2F2E41"/>
<path d="M341.748 208.811L337.678 214.163C337.678 214.163 337.309 216.662 331.136 237.022L327.75 390.059H348.235L375.615 267.612L404.033 392.515L421.79 393.563L420.955 251.596C420.955 251.596 423.198 222.39 415.248 216.966C407.298 211.542 341.748 208.811 341.748 208.811Z" fill="#2F2E41"/>
<path d="M369.218 80.2087C381.09 80.2087 390.714 70.587 390.714 58.718C390.714 46.8491 381.09 37.2274 369.218 37.2274C357.347 37.2274 347.723 46.8491 347.723 58.718C347.723 70.587 357.347 80.2087 369.218 80.2087Z" fill="#9E616A"/>
<path d="M390.843 62.0826L390.488 61.373C389.939 60.2753 385.394 51.15 384.824 48.8037L379.103 49.4763L364.208 49.4787L366.277 46.3747L360.805 47.0883C358.805 47.3313 356.892 48.0521 355.229 49.1897C354.209 49.8674 353.346 50.7566 352.7 51.797C350.745 55.1436 347.758 60.6176 347.728 60.6726L347.443 61.1963L344.961 57.0227C344.929 56.8606 341.853 40.8223 352.146 35.383C352.677 34.305 357.201 25.8257 367.892 26.398C369.067 25.0585 370.723 24.2357 372.5 24.1077C374.942 23.9804 377.477 25.2627 380.022 27.935C383.403 31.4843 388.034 36.345 390.834 41.742L391.607 42.844C392.704 44.4211 393.248 46.3176 393.153 48.2366C393.747 51.2993 393.536 54.4639 392.539 57.4203L390.843 62.0826Z" fill="#2F2E41"/>
<path d="M385.596 84.2524L397.491 90.825L420.855 97.3656L413.881 158.495L415.15 218.71C415.15 218.71 375.601 245.797 337.678 214.163V138.37L339.921 97.3656C339.921 97.3656 348.996 94.7882 353.566 99.2344L362.232 87.9793L385.596 84.2524Z" fill="#E4E4E4"/>
<path d="M345.162 102.998L339.921 97.3659L311.042 94.0952L313.752 49.7499L298.007 38.5201L286.44 100.95L339.875 138.37L345.162 102.998Z" fill="#E4E4E4"/>
<path d="M403.701 238.608C403.486 237.475 403.522 236.309 403.806 235.191C404.09 234.074 404.616 233.032 405.346 232.14C406.077 231.248 406.994 230.526 408.034 230.027C409.073 229.527 410.209 229.261 411.363 229.248L420.254 202.667L429.244 214.127L419.423 237.613C419.316 239.551 418.502 241.383 417.135 242.762C415.768 244.14 413.942 244.969 412.004 245.092C410.066 245.215 408.151 244.622 406.62 243.427C405.09 242.232 404.052 240.517 403.701 238.608Z" fill="#9E616A"/>
<path d="M412.077 104.363L420.855 97.3656C420.855 97.3656 429.831 102.315 432.562 111.19C435.293 120.064 440.073 170.582 440.073 170.582L427.099 235.435L412.591 225.375L419.588 173.995L407.298 136.448L412.077 104.363Z" fill="#E4E4E4"/>
<path d="M302.039 0H80.6693V53.7819H302.039V0Z" fill="#E6E6E6"/>
<path d="M86.4776 47.9746H296.23V5.80725H86.4776V47.9746Z" fill="white"/>
<path d="M126.429 42.9557C135.303 42.9557 142.497 35.7632 142.497 26.8909C142.497 18.0187 135.303 10.8262 126.429 10.8262C117.555 10.8262 110.361 18.0187 110.361 26.8909C110.361 35.7632 117.555 42.9557 126.429 42.9557Z" fill="#1F3748"/>
<path d="M272.347 20.6047H164.853V24.0971H272.347V20.6047Z" fill="#1F3748"/>
<path d="M272.347 29.6848H164.853V33.1771H272.347V29.6848Z" fill="#1F3748"/>
<path d="M7.62939e-06 81.7435L187.305 95.4028V144.571L7.62939e-06 141.094V81.7435Z" fill="#E6E6E6"/>
<path d="M5.90034 134.83L183.216 139.166V100.437L5.90034 88.5476V134.83Z" fill="white"/>
<path d="M44.8175 96.4683C46.8646 96.6004 48.8582 97.1775 50.6592 98.1593C52.4656 99.1465 54.0681 100.468 55.3814 102.053C56.7463 103.692 57.8154 105.557 58.5408 107.563C59.3062 109.674 59.6967 111.902 59.6949 114.147C59.7029 116.358 59.312 118.553 58.5408 120.625C57.8256 122.55 56.7537 124.322 55.3814 125.85C54.0638 127.318 52.4558 128.496 50.6592 129.311C48.825 130.135 46.8273 130.53 44.8175 130.467C42.7607 130.402 40.7435 129.884 38.91 128.95C37.0526 128 35.3974 126.699 34.036 125.119C32.6076 123.467 31.4862 121.573 30.7248 119.527C29.9169 117.365 29.5039 115.076 29.5057 112.768C29.4967 110.495 29.9101 108.24 30.7248 106.118C31.4765 104.158 32.6012 102.362 34.0368 100.831C35.4041 99.371 37.0653 98.2176 38.9108 97.4463C40.7792 96.6738 42.7998 96.3392 44.8175 96.4683Z" fill="#E6E6E6"/>
<path d="M79.7032 108.634L166.003 113.131V116.399L79.7032 112.206V108.634Z" fill="#E6E6E6"/>
<path d="M79.7032 117.923L166.003 121.627V124.895L79.7032 121.495V117.923Z" fill="#E6E6E6"/>
<path d="M7.62939e-06 181.626L187.305 178.15V227.318L7.62939e-06 240.978V181.626Z" fill="#E6E6E6"/>
<path d="M5.90034 234.173L183.216 222.283V183.558L5.90034 187.894V234.173Z" fill="white"/>
<path d="M29.5186 209.169C29.6095 206.863 30.1147 204.592 31.0099 202.465C31.8506 200.461 33.0457 198.625 34.5379 197.044C35.9582 195.534 37.6611 194.317 39.55 193.463C41.4183 192.622 43.4501 192.207 45.4986 192.247C47.5089 192.289 49.4836 192.786 51.2736 193.701C53.0337 194.61 54.5885 195.869 55.8416 197.403C57.1485 199 58.1462 200.827 58.7834 202.79C59.4696 204.899 59.7723 207.114 59.6772 209.33C59.5911 211.573 59.1133 213.784 58.2654 215.862C57.4634 217.832 56.3218 219.647 54.8924 221.222C53.5195 222.742 51.8673 223.985 50.0256 224.881C48.1864 225.773 46.1733 226.249 44.1293 226.276C42.1053 226.3 40.1026 225.861 38.2747 224.991C36.4634 224.122 34.8547 222.883 33.5525 221.353C32.1832 219.746 31.135 217.891 30.4646 215.889C29.7387 213.726 29.418 211.448 29.5186 209.169Z" fill="#E6E6E6"/>
<path d="M79.7032 201.226L166.003 197.826V201.094L79.7032 204.798V201.226Z" fill="#E6E6E6"/>
<path d="M79.7032 210.514L166.003 206.323V209.59L79.7032 214.087V210.514Z" fill="#E6E6E6"/>
<path d="M538.317 416H278.166C277.984 416 277.811 415.928 277.683 415.8C277.555 415.672 277.483 415.498 277.483 415.317C277.483 415.136 277.555 414.963 277.683 414.835C277.811 414.707 277.984 414.635 278.166 414.635H538.317C538.498 414.635 538.672 414.707 538.8 414.835C538.928 414.963 539 415.136 539 415.317C539 415.498 538.928 415.672 538.8 415.8C538.672 415.928 538.498 416 538.317 416Z" fill="#CACACA"/>
</g>
<defs>
<clipPath id="clip0_8221_1667">
<rect width="539" height="416" fill="white"/>
</clipPath>
</defs>
</svg>
