<svg viewBox="0 0 251 219" fill="none" xmlns="http://www.w3.org/2000/svg">
<g clip-path="url(#clip0_8221_2987)">
<path opacity="0.1" fill-rule="evenodd" clip-rule="evenodd" d="M174.294 206C208.647 187.523 232 151.239 232 109.5C232 49.0248 182.975 0 122.5 0C62.0248 0 13 49.0248 13 109.5C13 151.239 36.3529 187.523 70.7055 206H174.294Z" fill="#4EB1DA"/>
<path d="M204.243 201.358H200.165L198.224 185.637H204.244L204.243 201.358Z" fill="#9F616A"/>
<path d="M205.284 205.308L192.132 205.308V205.142C192.132 203.785 192.672 202.484 193.632 201.525C194.592 200.566 195.894 200.027 197.251 200.027L205.284 200.027L205.284 205.308Z" fill="#2F2E41"/>
<path d="M164.491 201.035L160.624 199.739L163.785 184.218L169.492 186.13L164.491 201.035Z" fill="#9F616A"/>
<path d="M164.221 205.111L151.751 200.933L151.804 200.776C152.236 199.49 153.161 198.427 154.376 197.823C155.592 197.218 156.998 197.121 158.285 197.552L165.901 200.104L164.221 205.111Z" fill="#2F2E41"/>
<path d="M169.519 120.112L160.687 194.774L169.349 195.504C169.349 195.504 182.976 122.098 187.177 130.793C191.378 139.489 196.525 193.875 196.525 193.875H205.122C205.122 193.875 207.327 109.018 198.325 104.82L169.519 120.112Z" fill="#2F2E41"/>
<path d="M192.412 58.6017C193.246 53.8721 190.085 49.3626 185.352 48.5293C180.619 47.6961 176.106 50.8547 175.272 55.5843C174.439 60.3139 177.6 64.8234 182.333 65.6566C187.066 66.4898 191.578 63.3312 192.412 58.6017Z" fill="#9F616A"/>
<path d="M178.671 68.9884L189.773 69.8879C189.773 69.8879 198.625 70.0378 202.226 72.4366C205.827 74.8354 198.775 89.6778 198.775 89.6778C198.775 89.6778 196.942 95.5625 198.325 98.2234C202.813 106.857 202.148 113.506 202.148 113.506C202.148 113.506 192.924 115.615 177.021 119.812C177.021 119.812 167.118 123.71 167.419 121.611C167.719 119.513 170.719 95.5248 170.719 95.5248V70.6375L178.671 68.9884Z" fill="#3F3D56"/>
<path d="M198.093 56.1506C197.648 53.6743 196.653 50.1616 194.437 47.4983C194.506 47.4987 194.576 47.5018 194.646 47.4997C195.408 47.4775 196.275 47.2374 196.589 46.5438C196.691 46.266 196.716 45.9661 196.663 45.6751C196.609 45.3842 196.479 45.1128 196.285 44.8891C195.892 44.4473 195.422 44.0803 194.898 43.8062C195.433 44.1305 196.189 44.4318 196.615 43.9749C196.725 43.8372 196.793 43.6711 196.812 43.496C196.83 43.321 196.799 43.1443 196.72 42.9867C196.558 42.6739 196.331 42.3998 196.053 42.1828C195.154 41.3884 194.171 40.6951 193.121 40.1151C192.308 39.6662 191.238 39.3058 190.509 39.88C189.765 40.465 189.884 41.6041 190.075 42.5303C189.659 42.287 189.191 42.1458 188.709 42.1183C188.469 42.1115 188.233 42.1877 188.042 42.3343C187.852 42.4808 187.717 42.6887 187.662 42.9227C187.655 43.1075 187.696 43.2908 187.781 43.4551C187.865 43.6194 187.991 43.759 188.146 43.8604C185.277 43.3889 181.611 43.9239 176.924 46.0909C176.924 46.0909 172.38 47.6046 172.149 53.5824C172.125 54.5385 172.231 55.4934 172.464 56.421C172.72 57.5047 173.631 62.8209 172.539 64.9694L178.011 66.9179L178.074 63.6422C173.821 57.5068 175.922 55.2553 177.578 51.5652C177.581 51.5585 177.585 51.5526 177.591 51.5484C177.597 51.5441 177.604 51.5416 177.611 51.541C177.618 51.5405 177.626 51.5419 177.632 51.5453C177.638 51.5486 177.644 51.5537 177.648 51.5599C177.954 52.0847 179.126 53.8836 183.163 53.8836L181.603 52.325C181.603 52.325 188.465 55.1304 190.961 55.1304C190.961 55.1304 192.832 56.3772 190.961 58.2474C189.089 60.1177 184.993 62.8704 187.177 66.2992C189.36 69.7279 189.172 70.9444 189.172 70.9444L194.163 68.139C194.163 68.139 197.211 62.1121 197.752 60.3373C198.196 58.9884 198.313 57.5534 198.093 56.1506Z" fill="#2F2E41"/>
<path d="M155 126.723V159.784V162.145C155 164.753 157.115 166.868 159.723 166.868H190.422L203.036 178.512C203.883 179.293 205.233 178.524 204.992 177.397L202.229 164.507H210.495C213.103 164.507 215.218 162.392 215.218 159.784V126.723C215.218 124.115 213.103 122 210.495 122H159.723C157.115 122 155 124.115 155 126.723Z" fill="url(#paint0_linear_8221_2987)"/>
<path d="M155 126.723V159.784V162.145C155 164.753 157.115 166.868 159.723 166.868H190.422L203.036 178.512C203.883 179.293 205.233 178.524 204.992 177.397L202.229 164.507H210.495C213.103 164.507 215.218 162.392 215.218 159.784V126.723C215.218 124.115 213.103 122 210.495 122H159.723C157.115 122 155 124.115 155 126.723Z" fill="url(#paint1_linear_8221_2987)"/>
<path d="M203.313 88.488L197.49 89.9026L197.446 101.68L190.896 124.271C190.372 124.685 189.971 125.235 189.737 125.861C189.504 126.486 189.446 127.164 189.57 127.82C189.695 128.477 189.997 129.086 190.444 129.583C190.891 130.08 191.465 130.445 192.105 130.638C192.745 130.832 193.425 130.847 194.073 130.681C194.72 130.515 195.31 130.176 195.778 129.699C196.246 129.222 196.574 128.626 196.727 127.976C196.88 127.326 196.852 126.646 196.646 126.011L204.476 102.624L203.313 88.488Z" fill="#9F616A"/>
<path d="M164.554 88.2405L171.541 90.2351L171.585 102.013L178.135 124.603C178.659 125.017 179.06 125.567 179.293 126.193C179.527 126.819 179.585 127.497 179.46 128.153C179.335 128.809 179.033 129.419 178.587 129.915C178.14 130.412 177.565 130.777 176.926 130.971C176.286 131.164 175.605 131.179 174.958 131.014C174.31 130.848 173.72 130.508 173.253 130.031C172.785 129.555 172.456 128.959 172.303 128.309C172.15 127.658 172.178 126.979 172.384 126.343L164.554 102.957V88.2405Z" fill="#9F616A"/>
<path d="M194.574 71.2372L196.017 70.7669C196.828 70.5029 197.709 70.564 198.475 70.9373C198.475 70.9373 202.676 71.2371 203.276 74.2356C203.876 77.2341 205.336 103.442 205.336 103.442L196.438 100.613L194.574 71.2372Z" fill="#3F3D56"/>
<path d="M174.32 71.2371L171.765 71.1088L170.956 70.7046C170.956 70.7046 166.218 71.2371 165.618 74.2356C165.018 77.2341 163.272 104.251 163.272 104.251L172.17 101.826L174.32 71.2371Z" fill="#3F3D56"/>
<path d="M27.5659 177.467L31.7836 173.79C31.6032 171.149 31.2739 168.521 30.7972 165.917L28.4697 166.901L30.6291 165.018C30.0077 161.804 29.3926 159.715 29.3926 159.715C29.3926 159.715 20.8827 167.267 16.1207 176.479L18.2097 183.346L15.0189 178.805C14.5445 179.901 14.1394 181.026 13.8063 182.173C10.4858 193.747 11.577 204.214 16.2435 205.551C20.9101 206.888 27.3848 198.588 30.7053 187.014C31.6741 183.306 32.0686 179.472 31.8748 175.645L27.5659 177.467Z" fill="#4EB1DA"/>
<path d="M38.7345 186.467L44.2468 185.498C45.4585 183.144 46.5363 180.724 47.4752 178.248L44.9736 177.889L47.7959 177.393C48.9265 174.32 49.4805 172.214 49.4805 172.214C49.4805 172.214 38.2895 174.283 29.4478 179.709L27.6841 186.667L27.3015 181.131C26.3283 181.825 25.3997 182.578 24.5213 183.388C15.6916 191.581 11.2115 201.105 14.5148 204.66C17.8181 208.215 27.6538 204.454 36.4835 196.261C39.2308 193.588 41.5517 190.509 43.3655 187.133L38.7345 186.467Z" fill="#4EB1DA"/>
<path d="M250.596 205.697H0.638592C0.531322 205.697 0.428439 205.655 0.352588 205.579C0.276737 205.503 0.234131 205.4 0.234131 205.293C0.234131 205.186 0.276737 205.083 0.352588 205.007C0.428439 204.931 0.531322 204.889 0.638592 204.889H250.596C250.703 204.889 250.806 204.931 250.882 205.007C250.957 205.083 251 205.186 251 205.293C251 205.4 250.957 205.503 250.882 205.579C250.806 205.655 250.703 205.697 250.596 205.697Z" fill="#CBCBCB"/>
<circle cx="171.5" cy="143.5" r="3.5" fill="#F8F8F8"/>
<circle cx="184.5" cy="143.5" r="3.5" fill="#F8F8F8"/>
<circle cx="197.5" cy="143.5" r="3.5" fill="#F8F8F8"/>
<path d="M4 42.7229V75.7836V78.145C4 80.7534 6.11453 82.868 8.72294 82.868H39.4221L52.0363 94.5118C52.883 95.2934 54.2331 94.5235 53.9917 93.3968L51.2295 80.5065H59.4946C62.103 80.5065 64.2175 78.392 64.2175 75.7836V42.7229C64.2175 40.1145 62.103 38 59.4946 38H8.72295C6.11453 38 4 40.1145 4 42.7229Z" fill="url(#paint2_linear_8221_2987)"/>
<path d="M148.218 67.7229V100.784V103.145C148.218 105.753 146.103 107.868 143.495 107.868H112.795L100.181 119.512C99.3346 120.293 97.9844 119.524 98.2259 118.397L100.988 105.507H92.7229C90.1145 105.507 88 103.392 88 100.784V67.7229C88 65.1145 90.1145 63 92.7229 63H143.495C146.103 63 148.218 65.1145 148.218 67.7229Z" fill="url(#paint3_linear_8221_2987)"/>
<circle cx="104.5" cy="84.5" r="3.5" fill="#F8F8F8"/>
<circle cx="117.5" cy="84.5" r="3.5" fill="#F8F8F8"/>
<circle cx="130.5" cy="84.5" r="3.5" fill="#F8F8F8"/>
<path d="M40 113.41V130.281V131.486C40 132.817 41.0886 133.896 42.4314 133.896H58.2353L64.7291 139.838C65.1649 140.237 65.86 139.844 65.7357 139.269L64.3137 132.691H68.5686C69.9114 132.691 71 131.612 71 130.281V113.41C71 112.079 69.9114 111 68.5686 111H42.4314C41.0886 111 40 112.079 40 113.41Z" fill="#1F3748"/>
<circle cx="20.5" cy="59.5" r="3.5" fill="#F8F8F8"/>
<circle cx="33.5" cy="59.5" r="3.5" fill="#F8F8F8"/>
<circle cx="46.5" cy="59.5" r="3.5" fill="#F8F8F8"/>
<circle opacity="0.7" cx="48.0151" cy="122.333" r="2.01515" fill="#F8F8F8"/>
<circle opacity="0.7" cx="55.5" cy="122.333" r="2.01515" fill="#F8F8F8"/>
<circle opacity="0.7" cx="62.9849" cy="122.333" r="2.01515" fill="#F8F8F8"/>
</g>
<defs>
<linearGradient id="paint0_linear_8221_2987" x1="185.109" y1="122" x2="185.109" y2="178.83" gradientUnits="userSpaceOnUse">
<stop stop-color="#4D6575"/>
<stop offset="1" stop-color="#1F3748"/>
</linearGradient>
<linearGradient id="paint1_linear_8221_2987" x1="185.109" y1="122" x2="185.109" y2="178.83" gradientUnits="userSpaceOnUse">
<stop stop-color="#69B5D5"/>
<stop offset="1" stop-color="#4EB1DA"/>
</linearGradient>
<linearGradient id="paint2_linear_8221_2987" x1="34.1088" y1="38" x2="34.1088" y2="94.8297" gradientUnits="userSpaceOnUse">
<stop stop-color="#69B5D5"/>
<stop offset="1" stop-color="#4EB1DA"/>
</linearGradient>
<linearGradient id="paint3_linear_8221_2987" x1="118.109" y1="63" x2="118.109" y2="119.83" gradientUnits="userSpaceOnUse">
<stop stop-color="#4D6575"/>
<stop offset="1" stop-color="#1F3748"/>
</linearGradient>
<clipPath id="clip0_8221_2987">
<rect width="251" height="219" fill="white"/>
</clipPath>
</defs>
</svg>
