<svg width="192" height="192" viewBox="0 0 192 192" fill="none" xmlns="http://www.w3.org/2000/svg">
<path d="M7.125 50.3992V33.0246C7.125 25.3481 13.3667 19.125 21.0662 19.125H170.934C178.633 19.125 184.875 25.3481 184.875 33.0246V130.322C184.875 137.999 178.633 144.222 170.934 144.222H146.537L154.69 182.158C155.403 185.474 151.418 187.74 148.918 185.44L111.684 151.172H21.0662C13.3667 151.172 7.125 144.949 7.125 137.272V130.322" stroke="url(#paint0_linear_8211_1696)" stroke-width="8.3"/>
<path fill-rule="evenodd" clip-rule="evenodd" d="M12.5418 92.3447V74.3762C12.5418 72.7132 11.1807 72.2226 9.75 72.075V70.5008H20.6959V72.0708C19.3213 72.2049 18.1565 72.6545 18.1565 74.2395V92.011C18.1565 98.0315 21.8859 100.445 26.9219 100.445C36.063 100.445 36.063 93.3226 36.063 86.7863V79.0775C36.063 73.5124 35.5933 72.3005 32.7462 72.0666V70.5H41.9535V72.0565C40.2712 72.2234 39.077 73.0335 39.077 76.5902V89.8565C39.077 97.3757 35.4793 103.123 25.9423 103.123C17.5736 103.125 12.5418 99.9243 12.5418 92.3447Z" fill="#29292E"/>
<path fill-rule="evenodd" clip-rule="evenodd" d="M48.4653 98.5158V74.8194C48.4653 72.8427 47.3391 72.1894 45.3347 72.0016V70.274C48.9945 70.3268 52.6266 70.3771 56.3024 70.3771C62.4546 70.3771 66.3081 70.3075 70.0996 70.2354L70.2858 75.4106H68.5406C67.6088 72.7362 65.8796 72.3345 61.0784 72.3345H54.085V84.6893H60.228C62.8857 84.6893 64.3348 84.6431 64.7776 82.4912H66.0976V88.7893H64.7231C64.2887 87.0182 63.0752 86.785 60.228 86.785H54.085V97.2117C54.085 100.472 55.3589 101.303 58.0778 101.383L58.1012 102.92H45.3347V101.33C47.3391 101.145 48.4653 100.495 48.4653 98.5158Z" fill="#29292E"/>
<path fill-rule="evenodd" clip-rule="evenodd" d="M162.866 93.3212V95.4245L162.843 101.62C159.599 102.489 155.27 103.513 150.578 103.513C140.059 103.513 132.67 96.1256 132.67 86.9812C132.67 76.5217 140.78 69.9233 151.03 69.9233C152.744 69.9233 154.108 70.1171 157.184 70.507C158.028 70.6429 162.281 71.4237 163.191 71.6216L163.605 77.6405H161.459C159.969 74.6692 157.908 72.0132 152.215 72.0132C145.091 72.0132 139.073 76.3263 139.073 86.7799C139.073 92.8625 142.472 101.425 152.866 101.425C154.499 101.425 156.008 101.033 157.505 100.378C157.505 99.7972 157.635 96.1969 157.635 95.3465C157.635 92.4566 157.309 91.2389 154.953 90.8556V89.2329H165.161V90.7533C163.342 90.9177 162.866 91.5182 162.866 93.3212Z" fill="#29292E"/>
<path fill-rule="evenodd" clip-rule="evenodd" d="M127.808 93.3137C126.745 94.4492 122.919 97.7736 121.647 97.7736C121.146 97.7736 120.503 97.4909 120.503 96.9223C120.503 96.1449 121.147 94.7243 121.502 93.5997L127.164 77.0325C127.516 76.0362 127.877 74.6943 127.877 73.5664C127.877 72.0023 127.238 70.6664 125.041 70.6664C118.316 70.6664 107.695 82.5523 103.874 87.3678H103.732L107.131 76.8169C107.563 75.5472 107.907 74.1283 107.907 73.002C107.907 71.6509 106.913 70.6664 104.725 70.6664C98.4298 70.6664 87.9486 82.341 84.558 87.2286H84.4171L88.0895 76.536C88.3729 75.6848 88.8728 74.3455 88.8728 73.1378C88.8728 71.7985 88.1666 70.6664 86.4651 70.6664C81.788 70.6664 76.8359 76.3263 74.1505 79.6465C74.1505 79.6465 73.457 80.4893 74.0097 80.9573C74.6336 81.4923 75.2173 80.9262 75.2173 80.9262L77.1243 78.8036C78.3982 77.5281 79.7467 76.3263 81.2278 76.3263C82.0815 76.3263 82.3599 76.9578 82.3599 77.7419C82.3599 78.3734 82.1503 79.0812 82.0815 79.5073L74.7108 101.772C74.5497 102.575 76.0517 103.014 76.7654 103.014C78.5584 103.014 79.3828 102.481 79.5916 101.907L80.873 98.1954C82.7843 92.8139 85.826 87.9339 89.7257 83.7524C91.9891 81.2793 96.2351 76.3263 100.058 76.3263C101.046 76.3263 101.399 77.1096 101.399 78.0925C101.399 79.9341 100.413 82.6203 100.193 83.3323L94.0061 101.8C93.8702 102.379 94.4941 103.189 96.4154 103.194C98.1875 103.201 98.6789 102.576 98.8886 101.933L100.058 99.0374C102.031 93.9452 104.021 90.2678 107.345 86.1685C109.613 83.401 116.055 76.2601 119.737 76.2601C120.504 76.2601 121.361 76.8186 121.361 77.9499C121.361 78.6535 120.931 79.857 120.589 80.8558L114.86 97.2796C114.352 98.6927 114 99.8207 114 100.607C114 102.441 115.279 103.007 116.621 103.007C120.504 103.007 123.839 99.8198 126.607 96.7831L128.797 94.3704C128.797 94.3704 129.409 93.7347 128.8 93.2282C128.279 92.7979 127.808 93.3137 127.808 93.3137Z" fill="#C80019"/>
<path d="M123.249 112.252H74.3014V124.05H123.249V112.252Z" fill="#C80019"/>
<defs>
<linearGradient id="paint0_linear_8211_1696" x1="7.125" y1="19.125" x2="152.979" y2="200.246" gradientUnits="userSpaceOnUse">
<stop stop-color="#1F3748"/>
<stop offset="1" stop-color="#4EB1DA"/>
</linearGradient>
</defs>
</svg>
