<svg width="26" height="26" viewBox="0 0 26 26" fill="none" xmlns="http://www.w3.org/2000/svg">
<g clip-path="url(#clip0_8252_1671)">
<circle cx="13" cy="13" r="13" fill="black"/>
<path d="M5.97846 12.895H8.64697H17.542H20.2105C20.7442 12.895 21.1 12.5392 21.1 12.0055C21.1 11.4718 20.7442 11.116 20.2105 11.116H18.2536L16.9193 5.95691C16.6525 4.80055 15.674 4 14.5177 4C14.3398 4 14.1619 4.08895 14.0729 4.1779L13.8061 4.3558C13.4503 4.62265 13.0055 4.62265 12.6497 4.3558L12.205 4.1779C12.0271 4.08895 11.8492 4 11.6713 4C10.5149 4 9.53647 4.80055 9.26962 5.95691L7.93537 11.116H5.97846C5.44476 11.116 5.08896 11.4718 5.08896 12.0055C5.08896 12.5392 5.44476 12.895 5.97846 12.895ZM10.9597 6.31271C11.0486 6.04586 11.2265 5.86796 11.4934 5.77901C12.4718 6.40166 13.6282 6.40166 14.6066 5.77901C14.8735 5.86796 15.0514 6.04586 15.1403 6.31271L15.763 8.44752H10.426L10.9597 6.31271ZM9.98123 10.2265H16.1188L16.3856 11.116H9.80333L9.98123 10.2265Z" fill="white"/>
<path d="M17.542 13.7845C15.8519 13.7845 14.5177 14.9409 14.0729 16.453H12.0271C11.6713 14.9409 10.2481 13.7845 8.55801 13.7845C6.60111 13.7845 5 15.3856 5 17.3425C5 19.2994 6.60111 20.9006 8.55801 20.9006C10.2481 20.9006 11.5823 19.7442 12.0271 18.232H14.0729C14.4287 19.7442 15.8519 20.9006 17.542 20.9006C19.4989 20.9006 21.1 19.2994 21.1 17.3425C21.1 15.3856 19.4989 13.7845 17.542 13.7845ZM8.64696 19.1215C7.66851 19.1215 6.86796 18.321 6.86796 17.3425C6.86796 16.3641 7.66851 15.5635 8.64696 15.5635C9.62542 15.5635 10.426 16.3641 10.426 17.3425C10.426 18.321 9.62542 19.1215 8.64696 19.1215ZM17.542 19.1215C16.5635 19.1215 15.763 18.321 15.763 17.3425C15.763 16.3641 16.5635 15.5635 17.542 15.5635C18.5204 15.5635 19.321 16.3641 19.321 17.3425C19.321 18.321 18.5204 19.1215 17.542 19.1215Z" fill="white"/>
</g>
<defs>
<clipPath id="clip0_8252_1671">
<rect width="26" height="26" fill="white"/>
</clipPath>
</defs>
</svg>
