<svg width="512" height="512" viewBox="0 0 512 512" fill="none" xmlns="http://www.w3.org/2000/svg">
<path d="M19 134.398V88.0657C19 67.5949 35.6445 51 56.1765 51H455.824C476.356 51 493 67.5949 493 88.0657V347.526C493 367.997 476.356 384.591 455.824 384.591H390.765L412.507 485.755C414.408 494.597 403.78 500.639 397.116 494.505L297.824 403.124H56.1765C35.6445 403.124 19 386.529 19 366.059V347.526" stroke="url(#paint0_linear_8201_4747)" stroke-width="27.3"/>
<path fill-rule="evenodd" clip-rule="evenodd" d="M33.4448 246.253V198.336C33.4448 193.902 29.8152 192.593 26 192.2V188.002H55.1889V192.189C51.5235 192.547 48.4172 193.745 48.4172 197.972V245.363C48.4172 261.417 58.3623 267.854 71.7916 267.854C96.1679 267.854 96.1679 248.86 96.1679 231.43V210.873C96.1679 196.033 94.9156 192.801 87.3231 192.178V188H111.876V192.151C107.39 192.596 104.205 194.756 104.205 204.24V239.617C104.205 259.669 94.6114 274.994 69.1796 274.994C46.863 274.999 33.4448 266.465 33.4448 246.253Z" fill="#29292E"/>
<path fill-rule="evenodd" clip-rule="evenodd" d="M129.241 262.709V199.518C129.241 194.247 126.237 192.505 120.892 192.004V187.397C130.652 187.538 140.338 187.672 150.14 187.672C166.545 187.672 176.822 187.487 186.932 187.294L187.429 201.095H182.775C180.29 193.963 175.679 192.892 162.876 192.892H144.227V225.838H160.608C167.695 225.838 171.559 225.715 172.74 219.976H176.26V236.771H172.595C171.436 232.048 168.2 231.427 160.608 231.427H144.227V259.231C144.227 267.926 147.624 270.142 154.874 270.355L154.937 274.454H120.892V270.214C126.237 269.72 129.241 267.987 129.241 262.709Z" fill="#29292E"/>
<path fill-rule="evenodd" clip-rule="evenodd" d="M434.309 248.857V254.465L434.249 270.985C425.597 273.305 414.052 276.035 401.542 276.035C373.492 276.035 353.787 256.335 353.787 231.95C353.787 204.058 375.413 186.462 402.748 186.462C407.317 186.462 410.955 186.979 419.158 188.019C421.408 188.381 432.751 190.463 435.175 190.991L436.28 207.041H430.557C426.583 199.118 421.088 192.035 405.905 192.035C386.91 192.035 370.862 203.537 370.862 231.413C370.862 247.633 379.926 270.467 407.643 270.467C411.997 270.467 416.02 269.422 420.012 267.676C420.012 266.126 420.361 256.525 420.361 254.257C420.361 246.551 419.491 243.304 413.207 242.282V237.954H440.428V242.009C435.577 242.447 434.309 244.048 434.309 248.857Z" fill="#29292E"/>
<path fill-rule="evenodd" clip-rule="evenodd" d="M340.821 248.837C337.986 251.865 327.783 260.73 324.393 260.73C323.056 260.73 321.34 259.976 321.34 258.46C321.34 256.386 323.058 252.598 324.004 249.599L339.104 205.42C340.043 202.763 341.005 199.185 341.005 196.177C341.005 192.006 339.301 188.444 333.444 188.444C315.508 188.444 287.187 220.14 276.998 232.981H276.618L285.682 204.845C286.836 201.459 287.753 197.675 287.753 194.672C287.753 191.069 285.1 188.444 279.266 188.444C262.479 188.444 234.529 219.576 225.488 232.61H225.112L234.905 204.096C235.661 201.826 236.994 198.255 236.994 195.034C236.994 191.463 235.111 188.444 230.573 188.444C218.101 188.444 204.895 203.537 197.735 212.391C197.735 212.391 195.885 214.638 197.359 215.886C199.023 217.313 200.579 215.803 200.579 215.803L205.665 210.143C209.062 206.742 212.658 203.537 216.607 203.537C218.884 203.537 219.626 205.221 219.626 207.312C219.626 208.996 219.067 210.883 218.884 212.019L199.229 271.392C198.799 273.533 202.804 274.704 204.708 274.704C209.489 274.704 211.687 273.282 212.244 271.753L215.661 261.854C220.758 247.504 228.869 234.49 239.268 223.34C245.304 216.745 256.627 203.537 266.82 203.537C269.455 203.537 270.398 205.626 270.398 208.247C270.398 213.158 267.768 220.321 267.18 222.219L250.683 271.466C250.32 273.012 251.984 275.172 257.108 275.183C261.833 275.203 263.144 273.535 263.703 271.822L266.822 264.1C272.082 250.521 277.389 240.714 286.252 229.783C292.301 222.403 309.481 203.36 319.299 203.36C321.343 203.36 323.628 204.85 323.628 207.866C323.628 209.743 322.483 212.952 321.571 215.615L306.292 259.412C304.939 263.181 304 266.188 304 268.286C304 273.177 307.41 274.684 310.988 274.684C321.345 274.684 330.237 266.186 337.619 258.088L343.458 251.654C343.458 251.654 345.091 249.959 343.467 248.608C342.078 247.461 340.821 248.837 340.821 248.837Z" fill="#C80019"/>
<path d="M328.664 299.338H198.137V330.801H328.664V299.338Z" fill="#C80019"/>
<defs>
<linearGradient id="paint0_linear_8201_4747" x1="19" y1="51" x2="407.944" y2="533.989" gradientUnits="userSpaceOnUse">
<stop stop-color="#1F3748"/>
<stop offset="1" stop-color="#4EB1DA"/>
</linearGradient>
</defs>
</svg>
