<svg width="179" height="75" viewBox="0 0 179 75" fill="none" xmlns="http://www.w3.org/2000/svg">
<path d="M103.084 15.9024V8.73438C103.084 5.56737 105.652 3 108.819 3H170.463C173.63 3 176.198 5.56737 176.198 8.73438V48.8751C176.198 52.0421 173.63 54.6094 170.463 54.6094H160.428L163.782 70.2603C164.075 71.6282 162.436 72.563 161.408 71.6141L146.092 57.4766H108.819C105.652 57.4766 103.084 54.9093 103.084 51.7422V48.8751" stroke="url(#paint0_linear_2_29)" stroke-width="4.30079"/>
<path fill-rule="evenodd" clip-rule="evenodd" d="M105.15 33.3431V25.942C105.15 25.257 104.589 25.055 104 24.9942V24.3458H108.509V24.9924C107.942 25.0477 107.463 25.2329 107.463 25.8857V33.2057C107.463 35.6855 108.999 36.6796 111.073 36.6796C114.838 36.6796 114.838 33.7459 114.838 31.0536V27.8785C114.838 25.5862 114.645 25.0871 113.472 24.9907V24.3455H117.264V24.9866C116.571 25.0553 116.08 25.389 116.08 26.8539V32.3183C116.08 35.4154 114.598 37.7826 110.67 37.7826C107.222 37.7833 105.15 36.4651 105.15 33.3431Z" fill="#29292E"/>
<path fill-rule="evenodd" clip-rule="evenodd" d="M119.934 35.777V26.0166C119.934 25.2025 119.47 24.9334 118.645 24.856V24.1444C120.152 24.1662 121.648 24.1869 123.162 24.1869C125.696 24.1869 127.283 24.1582 128.845 24.1285L128.922 26.2602H128.203C127.819 25.1586 127.107 24.9931 125.129 24.9931H122.249V30.082H124.779C125.874 30.082 126.471 30.063 126.653 29.1766H127.197V31.7708H126.631C126.452 31.0412 125.952 30.9452 124.779 30.9452H122.249V35.2399C122.249 36.5829 122.774 36.9252 123.893 36.958L123.903 37.5912H118.645V36.9363C119.47 36.8599 119.934 36.5922 119.934 35.777Z" fill="#29292E"/>
<path fill-rule="evenodd" clip-rule="evenodd" d="M167.055 33.6374V34.5037L167.046 37.0554C165.709 37.4136 163.926 37.8354 161.994 37.8354C157.661 37.8354 154.617 34.7925 154.617 31.026C154.617 26.7178 157.958 24 162.18 24C162.886 24 163.448 24.0798 164.715 24.2404C165.062 24.2964 166.814 24.618 167.189 24.6995L167.359 27.1786H166.475C165.861 25.9548 165.013 24.8608 162.668 24.8608C159.734 24.8608 157.255 26.6373 157.255 30.9431C157.255 33.4485 158.655 36.9753 162.936 36.9753C163.609 36.9753 164.23 36.814 164.847 36.5442C164.847 36.3048 164.901 34.8219 164.901 34.4716C164.901 33.2813 164.766 32.7797 163.795 32.6219V31.9535H168V32.5797C167.251 32.6474 167.055 32.8947 167.055 33.6374Z" fill="#29292E"/>
<path fill-rule="evenodd" clip-rule="evenodd" d="M152.615 33.6343C152.177 34.102 150.601 35.4713 150.077 35.4713C149.871 35.4713 149.606 35.3549 149.606 35.1207C149.606 34.8004 149.871 34.2153 150.017 33.7521L152.349 26.9282C152.495 26.5178 152.643 25.9651 152.643 25.5005C152.643 24.8563 152.38 24.306 151.475 24.306C148.705 24.306 144.33 29.2018 142.757 31.1852H142.698L144.098 26.8394C144.276 26.3164 144.418 25.732 144.418 25.268C144.418 24.7116 144.008 24.306 143.107 24.306C140.514 24.306 136.197 29.1147 134.8 31.1279H134.742L136.255 26.7237C136.372 26.3731 136.578 25.8214 136.578 25.324C136.578 24.7724 136.287 24.306 135.586 24.306C133.659 24.306 131.62 26.6373 130.514 28.0049C130.514 28.0049 130.228 28.352 130.456 28.5448C130.713 28.7651 130.953 28.532 130.953 28.532L131.739 27.6577C132.263 27.1323 132.819 26.6373 133.429 26.6373C133.78 26.6373 133.895 26.8974 133.895 27.2204C133.895 27.4805 133.809 27.772 133.78 27.9475L130.744 37.1183C130.678 37.4488 131.297 37.6298 131.591 37.6298C132.329 37.6298 132.669 37.4101 132.755 37.1739L133.283 35.645C134.07 33.4284 135.323 31.4184 136.929 29.6961C137.861 28.6774 139.61 26.6373 141.185 26.6373C141.591 26.6373 141.737 26.9599 141.737 27.3648C141.737 28.1233 141.331 29.2297 141.24 29.523L138.692 37.1297C138.636 37.3683 138.893 37.702 139.684 37.7038C140.414 37.7069 140.617 37.4492 140.703 37.1846L141.185 35.9918C141.997 33.8944 142.817 32.3797 144.186 30.6912C145.12 29.5513 147.774 26.61 149.29 26.61C149.606 26.61 149.959 26.8401 149.959 27.3061C149.959 27.5959 149.782 28.0916 149.641 28.503L147.281 35.2678C147.072 35.8498 146.927 36.3144 146.927 36.6385C146.927 37.3939 147.454 37.6267 148.007 37.6267C149.606 37.6267 150.98 36.3141 152.12 35.0633L153.022 34.0695C153.022 34.0695 153.274 33.8077 153.023 33.599C152.809 33.4218 152.615 33.6343 152.615 33.6343Z" fill="#C80019"/>
<path d="M150.737 41.4348H130.576V46.2946H150.737V41.4348Z" fill="#C80019"/>
<path d="M4.18 27.52C4.54 27.0133 5.03333 26.5933 5.66 26.26C6.3 25.9133 7.02667 25.74 7.84 25.74C8.78667 25.74 9.64 25.9733 10.4 26.44C11.1733 26.9067 11.78 27.5733 12.22 28.44C12.6733 29.2933 12.9 30.2867 12.9 31.42C12.9 32.5533 12.6733 33.56 12.22 34.44C11.78 35.3067 11.1733 35.98 10.4 36.46C9.64 36.94 8.78667 37.18 7.84 37.18C7.02667 37.18 6.30667 37.0133 5.68 36.68C5.06667 36.3467 4.56667 35.9267 4.18 35.42V42.28H1.38V25.92H4.18V27.52ZM10.04 31.42C10.04 30.7533 9.9 30.18 9.62 29.7C9.35333 29.2067 8.99333 28.8333 8.54 28.58C8.1 28.3267 7.62 28.2 7.1 28.2C6.59333 28.2 6.11333 28.3333 5.66 28.6C5.22 28.8533 4.86 29.2267 4.58 29.72C4.31333 30.2133 4.18 30.7933 4.18 31.46C4.18 32.1267 4.31333 32.7067 4.58 33.2C4.86 33.6933 5.22 34.0733 5.66 34.34C6.11333 34.5933 6.59333 34.72 7.1 34.72C7.62 34.72 8.1 34.5867 8.54 34.32C8.99333 34.0533 9.35333 33.6733 9.62 33.18C9.9 32.6867 10.04 32.1 10.04 31.42ZM25.2347 31.22C25.2347 31.62 25.208 31.98 25.1547 32.3H17.0547C17.1214 33.1 17.4014 33.7267 17.8947 34.18C18.388 34.6333 18.9947 34.86 19.7147 34.86C20.7547 34.86 21.4947 34.4133 21.9347 33.52H24.9547C24.6347 34.5867 24.0214 35.4667 23.1147 36.16C22.208 36.84 21.0947 37.18 19.7747 37.18C18.708 37.18 17.748 36.9467 16.8947 36.48C16.0547 36 15.3947 35.3267 14.9147 34.46C14.448 33.5933 14.2147 32.5933 14.2147 31.46C14.2147 30.3133 14.448 29.3067 14.9147 28.44C15.3814 27.5733 16.0347 26.9067 16.8747 26.44C17.7147 25.9733 18.6814 25.74 19.7747 25.74C20.828 25.74 21.768 25.9667 22.5947 26.42C23.4347 26.8733 24.0814 27.52 24.5347 28.36C25.0014 29.1867 25.2347 30.14 25.2347 31.22ZM22.3347 30.42C22.3214 29.7 22.0614 29.1267 21.5547 28.7C21.048 28.26 20.428 28.04 19.6947 28.04C19.0014 28.04 18.4147 28.2533 17.9347 28.68C17.468 29.0933 17.1814 29.6733 17.0747 30.42H22.3347ZM30.0784 27.64C30.4384 27.0533 30.9051 26.5933 31.4784 26.26C32.0651 25.9267 32.7318 25.76 33.4784 25.76V28.7H32.7384C31.8584 28.7 31.1918 28.9067 30.7384 29.32C30.2984 29.7333 30.0784 30.4533 30.0784 31.48V37H27.2784V25.92H30.0784V27.64ZM39.7044 25.74C40.531 25.74 41.2577 25.9067 41.8844 26.24C42.511 26.56 43.0044 26.98 43.3644 27.5V25.92H46.1844V37.08C46.1844 38.1067 45.9777 39.02 45.5644 39.82C45.151 40.6333 44.531 41.2733 43.7044 41.74C42.8777 42.22 41.8777 42.46 40.7044 42.46C39.131 42.46 37.8377 42.0933 36.8244 41.36C35.8244 40.6267 35.2577 39.6267 35.1244 38.36H37.9044C38.051 38.8667 38.3644 39.2667 38.8444 39.56C39.3377 39.8667 39.931 40.02 40.6244 40.02C41.4377 40.02 42.0977 39.7733 42.6044 39.28C43.111 38.8 43.3644 38.0667 43.3644 37.08V35.36C43.0044 35.88 42.5044 36.3133 41.8644 36.66C41.2377 37.0067 40.5177 37.18 39.7044 37.18C38.771 37.18 37.9177 36.94 37.1444 36.46C36.371 35.98 35.7577 35.3067 35.3044 34.44C34.8644 33.56 34.6444 32.5533 34.6444 31.42C34.6444 30.3 34.8644 29.3067 35.3044 28.44C35.7577 27.5733 36.3644 26.9067 37.1244 26.44C37.8977 25.9733 38.7577 25.74 39.7044 25.74ZM43.3644 31.46C43.3644 30.78 43.231 30.2 42.9644 29.72C42.6977 29.2267 42.3377 28.8533 41.8844 28.6C41.431 28.3333 40.9444 28.2 40.4244 28.2C39.9044 28.2 39.4244 28.3267 38.9844 28.58C38.5444 28.8333 38.1844 29.2067 37.9044 29.7C37.6377 30.18 37.5044 30.7533 37.5044 31.42C37.5044 32.0867 37.6377 32.6733 37.9044 33.18C38.1844 33.6733 38.5444 34.0533 38.9844 34.32C39.4377 34.5867 39.9177 34.72 40.4244 34.72C40.9444 34.72 41.431 34.5933 41.8844 34.34C42.3377 34.0733 42.6977 33.7 42.9644 33.22C43.231 32.7267 43.3644 32.14 43.3644 31.46ZM59.3791 25.92V37H56.5591V35.6C56.1991 36.08 55.7257 36.46 55.1391 36.74C54.5657 37.0067 53.9391 37.14 53.2591 37.14C52.3924 37.14 51.6257 36.96 50.9591 36.6C50.2924 36.2267 49.7657 35.6867 49.3791 34.98C49.0057 34.26 48.8191 33.4067 48.8191 32.42V25.92H51.6191V32.02C51.6191 32.9 51.8391 33.58 52.2791 34.06C52.7191 34.5267 53.3191 34.76 54.0791 34.76C54.8524 34.76 55.4591 34.5267 55.8991 34.06C56.3391 33.58 56.5591 32.9 56.5591 32.02V25.92H59.3791ZM68.2817 25.76C69.6017 25.76 70.6684 26.18 71.4817 27.02C72.2951 27.8467 72.7017 29.0067 72.7017 30.5V37H69.9017V30.88C69.9017 30 69.6817 29.3267 69.2417 28.86C68.8017 28.38 68.2017 28.14 67.4417 28.14C66.6684 28.14 66.0551 28.38 65.6017 28.86C65.1617 29.3267 64.9417 30 64.9417 30.88V37H62.1417V25.92H64.9417V27.3C65.3151 26.82 65.7884 26.4467 66.3617 26.18C66.9484 25.9 67.5884 25.76 68.2817 25.76ZM78.6244 28.22V33.58C78.6244 33.9533 78.711 34.2267 78.8844 34.4C79.071 34.56 79.3777 34.64 79.8044 34.64H81.1044V37H79.3444C76.9844 37 75.8044 35.8533 75.8044 33.56V28.22H74.4844V25.92H75.8044V23.18H78.6244V25.92H81.1044V28.22H78.6244ZM82.3983 31.42C82.3983 30.3 82.6183 29.3067 83.0583 28.44C83.5116 27.5733 84.1183 26.9067 84.8783 26.44C85.6516 25.9733 86.5116 25.74 87.4583 25.74C88.2849 25.74 89.0049 25.9067 89.6183 26.24C90.2449 26.5733 90.7449 26.9933 91.1183 27.5V25.92H93.9383V37H91.1183V35.38C90.7583 35.9 90.2583 36.3333 89.6183 36.68C88.9916 37.0133 88.2649 37.18 87.4383 37.18C86.5049 37.18 85.6516 36.94 84.8783 36.46C84.1183 35.98 83.5116 35.3067 83.0583 34.44C82.6183 33.56 82.3983 32.5533 82.3983 31.42ZM91.1183 31.46C91.1183 30.78 90.9849 30.2 90.7183 29.72C90.4516 29.2267 90.0916 28.8533 89.6383 28.6C89.1849 28.3333 88.6983 28.2 88.1783 28.2C87.6583 28.2 87.1783 28.3267 86.7383 28.58C86.2983 28.8333 85.9383 29.2067 85.6583 29.7C85.3916 30.18 85.2583 30.7533 85.2583 31.42C85.2583 32.0867 85.3916 32.6733 85.6583 33.18C85.9383 33.6733 86.2983 34.0533 86.7383 34.32C87.1916 34.5867 87.6716 34.72 88.1783 34.72C88.6983 34.72 89.1849 34.5933 89.6383 34.34C90.0916 34.0733 90.4516 33.7 90.7183 33.22C90.9849 32.7267 91.1183 32.14 91.1183 31.46Z" fill="#29292E"/>
<defs>
<linearGradient id="paint0_linear_2_29" x1="103.084" y1="3" x2="163.295" y2="77.547" gradientUnits="userSpaceOnUse">
<stop stop-color="#1F3748"/>
<stop offset="1" stop-color="#4EB1DA"/>
</linearGradient>
</defs>
</svg>
